<svg width="48" height="48" viewBox="0 0 48 48" fill="none" xmlns="http://www.w3.org/2000/svg">
<path d="M2 12.0571C2 6.50274 6.50274 2 12.0571 2H35.9429C41.4973 2 46 6.50274 46 12.0571V35.9429C46 41.4973 41.4973 46 35.9429 46H12.0571C6.50274 46 2 41.4973 2 35.9429V12.0571Z" fill="#2B2D31" style="fill:#2B2D31;fill:color(display-p3 0.1677 0.1773 0.1917);fill-opacity:1;"/>
<path d="M35.446 15.6396C34.18 16.1281 33.1755 17.1326 32.687 18.3986C32.57 18.7013 32.1572 18.7013 32.0403 18.3986C31.5518 17.1326 30.5404 16.1281 29.2744 15.6396C28.9717 15.5227 28.9717 15.1099 29.2744 14.9929C30.5404 14.5044 31.5449 13.493 32.0403 12.227C32.1572 11.9243 32.57 11.9243 32.687 12.227C33.1755 13.493 34.18 14.4975 35.446 14.9929C35.7487 15.1099 35.7487 15.5227 35.446 15.6396Z" fill="white" style="fill:white;fill-opacity:1;"/>
<path d="M32.6136 26.4651C28.7376 27.9625 25.65 31.0501 24.1526 34.9261C23.7948 35.847 22.5227 35.847 22.1649 34.9261C20.6609 31.0501 17.5667 27.9625 13.6907 26.4651C12.7698 26.1073 12.7698 24.8352 13.6907 24.4774C17.5733 22.9734 20.6609 19.8792 22.1649 16.0032C22.5227 15.0823 23.7948 15.0823 24.1526 16.0032C25.65 19.8859 28.7376 22.9734 32.6136 24.4774C33.5345 24.8352 33.5345 26.1073 32.6136 26.4651Z" fill="white" style="fill:white;fill-opacity:1;"/>
</svg>
