<svg width="107" height="43" viewBox="0 0 107 43" fill="none" xmlns="http://www.w3.org/2000/svg">
<path d="M81.9224 20.4936L96.1363 11.631V14.0344L81.9224 22.9345L67.6897 14.0344V11.631L81.9224 20.4936Z" fill="white"/>
<path d="M81.9224 9.37781C78.7116 9.37781 75.8951 10.9926 74.2803 13.4899C74.4117 13.3584 74.4868 13.2833 74.6183 13.1895C78.6177 9.866 84.3821 10.6171 87.5178 14.8042L89.602 13.4711C87.9497 11.0489 85.1144 9.37781 81.9224 9.37781Z" fill="white"/>
<path d="M81.9225 13.4899C80.1763 13.4899 78.6366 14.3724 77.7166 15.6492C78.4676 15.1047 79.3313 14.823 80.2514 14.823C81.7911 14.823 83.1618 15.6116 84.0818 16.9448L86.0722 15.7055C85.2084 14.3348 83.6688 13.4899 81.9225 13.4899Z" fill="white"/>
<path d="M72.3088 9.88477C78.1671 5.26572 86.4476 6.52375 90.8601 12.6637L90.8976 12.7013L93.0569 11.3681C90.6911 7.74423 86.579 5.34082 81.9224 5.34082C77.3033 5.34082 73.1913 7.70667 70.7878 11.3681C71.2197 10.8799 71.7642 10.2979 72.3088 9.88477Z" fill="white"/>
<path d="M12.937 27.8352V19.3481H15.716V27.7413C15.716 29.788 17.4246 30.2761 18.3822 30.2761C20.4664 30.2761 21.1612 29.0369 21.1612 28.3234V19.3481H23.9401V32.5293H22.3253L21.2363 31.0272C20.4852 31.9473 19.246 32.7734 17.4059 32.7734C14.7583 32.7922 12.937 31.046 12.937 27.8352Z" fill="white"/>
<path d="M44.5381 14.7103V32.5481H46.1153L47.148 31.046C47.8991 31.966 49.1384 32.8298 50.9785 32.8298C53.4382 32.8298 55.5036 31.3276 55.5036 28.0042V23.9296C55.5036 20.6062 53.4194 19.104 50.847 19.104C49.0633 19.104 47.8616 19.8927 47.2231 20.6813V14.6915L44.5381 14.7103ZM50.1899 30.2949C48.4812 30.2949 47.2419 29.4687 47.2795 27.6662V24.0423C47.2795 22.634 48.4061 21.545 50.2274 21.545C51.523 21.545 52.7998 22.5026 52.7998 24.0423V27.7413C52.7998 29.3749 51.4854 30.2949 50.1899 30.2949Z" fill="white"/>
<path d="M34.136 14.7103V20.7001C33.5163 19.9115 32.3146 19.1228 30.5121 19.1228C27.9397 19.1228 25.8555 20.625 25.8555 23.9484V28.023C25.8555 31.3464 27.9397 32.8486 30.3806 32.8486C32.202 32.8486 33.46 31.9661 34.2111 31.0648L35.2438 32.5669H36.821V14.7291H34.136V14.7103ZM28.5593 27.7976V24.0986C28.5593 22.559 29.8549 21.6014 31.1317 21.6014C32.953 21.6014 34.0796 22.6341 34.0796 24.0986V27.7225C34.1172 29.5063 32.8779 30.3513 31.1693 30.3513C29.8924 30.2949 28.5593 29.3749 28.5593 27.7976Z" fill="white"/>
<path d="M57.3813 14.7103H60.1603V32.5481H57.3813V14.7103Z" fill="white"/>
<path d="M42.1161 19.3669H39.3372V32.5481H42.1161V19.3669Z" fill="white"/>
<path d="M40.7452 17.7709C41.6163 17.7709 42.3224 17.0648 42.3224 16.1937C42.3224 15.3226 41.6163 14.6165 40.7452 14.6165C39.8741 14.6165 39.168 15.3226 39.168 16.1937C39.168 17.0648 39.8741 17.7709 40.7452 17.7709Z" fill="white"/>
<path d="M67.8212 30.295C65.906 30.295 64.986 29.2998 64.986 27.9291V26.8401H73.2101V23.8921C73.2101 20.8503 71.0884 19.0665 67.8025 19.0665C64.3851 19.0665 62.1882 20.9818 62.1882 23.9672V28.0418C62.1882 31.0836 64.3851 32.8674 67.8025 32.8674C70.3373 32.8674 72.215 31.8346 72.966 30.0884L70.9757 28.8492C70.281 29.8068 69.267 30.295 67.8212 30.295ZM64.986 23.9297C64.986 22.559 65.9436 21.6014 67.7273 21.6014C69.5111 21.6014 70.4687 22.559 70.4687 23.9297V24.7558H65.0235L64.986 23.9297Z" fill="white"/>
<path d="M5.7832 19.0665C3.07937 19.0665 1.33314 20.1556 0.675957 21.7704L2.83527 23.1035C3.75533 21.6389 4.61905 21.5638 5.7832 21.5638C7.49187 21.5638 8.24294 22.3524 8.24294 23.648V24.6807H5.89586C4.18719 24.6807 0 25.2628 0 28.8867C0 31.4591 1.95277 32.7547 4.31863 32.7547C6.19629 32.7547 7.56698 31.8722 8.3556 30.9709L9.44464 32.473H11.0594V23.4415C11.0219 20.9442 9.27566 19.0665 5.7832 19.0665ZM8.22416 28.3422C8.18661 28.5487 8.18661 28.7928 7.92374 29.1308C7.51065 29.7129 6.42161 30.295 5.18235 30.295C3.84921 30.295 2.8916 29.7504 2.8916 28.6802C2.8916 27.1029 5.42645 26.765 7.04124 26.6898H8.24294L8.22416 28.3422Z" fill="white"/>
</svg>
