<svg xmlns:xlink="http://www.w3.org/1999/xlink" xmlns="http://www.w3.org/2000/svg" width="48" height="48" viewBox="0 0 48 48" fill="none">
<path d="M0 10.9714C0 4.91208 4.91208 0 10.9714 0H37.0286C43.0879 0 48 4.91208 48 10.9714V37.0286C48 43.0879 43.0879 48 37.0286 48H10.9714C4.91208 48 0 43.0879 0 37.0286V10.9714Z" fill="#1770E6"/>
<path d="M21.7031 16.2335C21.7031 15.0105 20.7117 14.0192 19.4888 14.0192L15.2061 14.0192C13.9832 14.0192 12.9918 15.0105 12.9918 16.2335L12.9918 21.5374C12.9918 22.7603 13.9832 23.7517 15.2061 23.7517L19.4888 23.7517C20.7117 23.7517 21.7031 22.7603 21.7031 21.5374L21.7031 16.2335Z" fill="white"/>
<path fill-rule="evenodd" clip-rule="evenodd" d="M32.6281 23.7517C33.869 23.7517 34.875 22.7638 34.875 21.5451L34.875 13.454C34.875 12.2353 33.869 11.2474 32.6281 11.2474L25.5762 11.2474C24.3353 11.2474 23.3293 12.2353 23.3293 13.454L23.3293 21.5451C23.3293 22.7638 24.3353 23.7517 25.5762 23.7517L32.6281 23.7517Z" fill="white"/>
<path d="M26.3086 27.7966C26.3086 26.541 25.3367 25.5231 24.1377 25.5231L15.1624 25.5231C13.9634 25.5231 12.9915 26.541 12.9915 27.7966L12.9915 34.2117C12.9915 35.4674 13.9634 36.4853 15.1624 36.4853L24.1377 36.4853C25.3366 36.4853 26.3086 35.4674 26.3086 34.2117L26.3086 27.7966Z" fill="white"/>
<path d="M29.247 27.1663L31.7011 33.3677C31.8426 33.7253 32.3588 33.7286 32.5051 33.3729L33.4831 30.9959C33.527 30.8892 33.6136 30.8046 33.7227 30.7616L36.1538 29.8054C36.5175 29.6623 36.5141 29.1576 36.1484 29.0192L29.806 26.6197C29.456 26.4872 29.1116 26.824 29.247 27.1663Z" fill="white"/>
<path fill-rule="evenodd" clip-rule="evenodd" d="M31.5427 33.4274L29.0886 27.226C28.9002 26.7497 29.3795 26.2811 29.8665 26.4653L36.2089 28.8649C36.7178 29.0574 36.7226 29.7597 36.2164 29.9589L33.7854 30.9151C33.7189 30.9412 33.6663 30.9927 33.6396 31.0577L32.6616 33.4347C32.4579 33.9296 31.7396 33.925 31.5427 33.4274ZM31.7006 33.3677L29.2465 27.1662C29.111 26.824 29.4555 26.4872 29.8055 26.6197L36.1479 29.0192C36.5136 29.1576 36.517 29.6623 36.1532 29.8054L33.7222 30.7616C33.613 30.8046 33.5265 30.8892 33.4826 30.9959L32.5046 33.3729C32.3582 33.7286 31.8421 33.7252 31.7006 33.3677Z" fill="white"/>
</svg>