<svg xmlns:xlink="http://www.w3.org/1999/xlink" xmlns="http://www.w3.org/2000/svg" width="48" height="48" viewBox="0 0 48 48" fill="none">
<path d="M0 10.9714C0 4.91208 4.91208 0 10.9714 0H37.0286C43.0879 0 48 4.91208 48 10.9714V37.0286C48 43.0879 43.0879 48 37.0286 48H10.9714C4.91208 48 0 43.0879 0 37.0286V10.9714Z" fill="#FFDA00"/>
<path d="M36.7106 19.1811C36.7117 19.4618 36.6386 19.7378 36.4988 19.9812C36.3589 20.2246 36.1572 20.4267 35.9141 20.5671L24.7628 26.9392C24.5207 27.079 24.2459 27.1526 23.9663 27.1526C23.6867 27.1526 23.412 27.079 23.1698 26.9392L12.0185 20.5671C11.7734 20.4281 11.5694 20.2266 11.4276 19.9831C11.2857 19.7397 11.2109 19.4629 11.2109 19.1811C11.2109 18.8993 11.2857 18.6226 11.4276 18.3791C11.5694 18.1356 11.7734 17.9341 12.0185 17.7952L23.1698 11.423C23.412 11.2832 23.6867 11.2096 23.9663 11.2096C24.2459 11.2096 24.5207 11.2832 24.7628 11.423L35.9141 17.7952C36.1572 17.9355 36.3589 18.1376 36.4988 18.381C36.6386 18.6244 36.7117 18.9004 36.7106 19.1811Z" fill="white"/>
<path d="M35.9141 27.3535L33.19 25.7604L26.3399 29.6793C25.6193 30.1006 24.801 30.3258 23.9663 30.3325C23.1399 30.3327 22.3276 30.1186 21.6086 29.7112L14.7426 25.7923L12.0185 27.3853C11.7734 27.5243 11.5694 27.7258 11.4276 27.9692C11.2857 28.2127 11.2109 28.4895 11.2109 28.7713C11.2109 29.0531 11.2857 29.3298 11.4276 29.5733C11.5694 29.8168 11.7734 30.0183 12.0185 30.1572L23.1698 36.5294C23.412 36.6692 23.6867 36.7428 23.9663 36.7428C24.2459 36.7428 24.5207 36.6692 24.7628 36.5294L35.9141 30.1572C36.1593 30.0183 36.3632 29.8168 36.5051 29.5733C36.6469 29.3298 36.7217 29.0531 36.7217 28.7713C36.7217 28.4895 36.6469 28.2127 36.5051 27.9692C36.3632 27.7258 36.1593 27.5243 35.9141 27.3853V27.3535Z" fill="white"/>
</svg>