<svg xmlns:xlink="http://www.w3.org/1999/xlink" xmlns="http://www.w3.org/2000/svg" width="48" height="48" viewBox="0 0 48 48" fill="none">
<path d="M0 10.9714C0 4.91208 4.91208 0 10.9714 0H37.0286C43.0879 0 48 4.91208 48 10.9714V37.0286C48 43.0879 43.0879 48 37.0286 48H10.9714C4.91208 48 0 43.0879 0 37.0286V10.9714Z" fill="#E44F20"/>
<path d="M23.0559 18.401C23.5745 18.1016 24.2134 18.1016 24.732 18.401L28.4011 20.5193C28.9196 20.8187 29.2391 21.372 29.2391 21.9708V26.2075C29.2391 26.8063 28.9196 27.3596 28.4011 27.659L24.732 29.7774C24.2134 30.0768 23.5745 30.0768 23.0559 29.7774L19.3868 27.659C18.8683 27.3596 18.5488 26.8063 18.5488 26.2075V21.9708C18.5488 21.372 18.8683 20.8187 19.3868 20.5193L23.0559 18.401Z" fill="white"/>
<path d="M17.3293 10.6729C17.7626 10.4227 18.2965 10.4227 18.7298 10.6729L20.6792 11.7983C21.1125 12.0485 21.3795 12.5109 21.3795 13.0112V15.2622C21.3795 15.7625 21.1125 16.2249 20.6792 16.4751L18.7299 17.6005C18.2965 17.8507 17.7626 17.8507 17.3293 17.6005L15.38 16.4751C14.9466 16.2249 14.6797 15.7625 14.6797 15.2622V13.0112C14.6797 12.5109 14.9466 12.0485 15.38 11.7983L17.3293 10.6729Z" fill="white"/>
<path d="M29.1574 10.6729C29.5908 10.4227 30.1246 10.4227 30.558 10.6729L32.5073 11.7983C32.9407 12.0485 33.2076 12.5109 33.2076 13.0112V15.2622C33.2076 15.7625 32.9407 16.2249 32.5073 16.4751L30.558 17.6005C30.1246 17.8507 29.5908 17.8507 29.1574 17.6005L27.2081 16.4751C26.7748 16.2249 26.5078 15.7625 26.5078 15.2622V13.0112C26.5078 12.5109 26.7748 12.0485 27.2081 11.7983L29.1574 10.6729Z" fill="white"/>
<path d="M34.8781 20.6385C35.3115 20.3884 35.8454 20.3884 36.2787 20.6385L38.228 21.764C38.6614 22.0142 38.9283 22.4765 38.9283 22.9769V25.2278C38.9283 25.7282 38.6614 26.1905 38.228 26.4407L36.2787 27.5662C35.8454 27.8164 35.3115 27.8164 34.8781 27.5662L32.9288 26.4407C32.4955 26.1905 32.2285 25.7282 32.2285 25.2278V22.9769C32.2285 22.4765 32.4955 22.0142 32.9288 21.764L34.8781 20.6385Z" fill="white"/>
<path d="M11.5813 20.6385C12.0146 20.3884 12.5485 20.3884 12.9818 20.6385L14.9312 21.764C15.3645 22.0142 15.6314 22.4765 15.6314 22.9769V25.2278C15.6314 25.7282 15.3645 26.1905 14.9312 26.4407L12.9818 27.5662C12.5485 27.8164 12.0146 27.8164 11.5813 27.5662L9.63191 26.4407C9.19858 26.1905 8.93164 25.7282 8.93164 25.2278V22.9769C8.93164 22.4765 9.19858 22.0142 9.6319 21.764L11.5813 20.6385Z" fill="white"/>
<path d="M17.3293 30.5271C17.7626 30.2769 18.2965 30.2769 18.7298 30.5271L20.6792 31.6525C21.1125 31.9027 21.3795 32.3651 21.3795 32.8654V35.1163C21.3795 35.6167 21.1125 36.0791 20.6792 36.3292L18.7299 37.4547C18.2965 37.7049 17.7626 37.7049 17.3293 37.4547L15.38 36.3292C14.9466 36.0791 14.6797 35.6167 14.6797 35.1164V32.8654C14.6797 32.3651 14.9466 31.9027 15.38 31.6525L17.3293 30.5271Z" fill="white"/>
<path d="M29.1574 30.5271C29.5908 30.2769 30.1246 30.2769 30.558 30.5271L32.5073 31.6525C32.9407 31.9027 33.2076 32.3651 33.2076 32.8654V35.1163C33.2076 35.6167 32.9407 36.0791 32.5073 36.3292L30.558 37.4547C30.1246 37.7049 29.5908 37.7049 29.1574 37.4547L27.2081 36.3292C26.7748 36.0791 26.5078 35.6167 26.5078 35.1163V32.8654C26.5078 32.3651 26.7748 31.9027 27.2081 31.6525L29.1574 30.5271Z" fill="white"/>
</svg>