<svg xmlns:xlink="http://www.w3.org/1999/xlink" xmlns="http://www.w3.org/2000/svg" width="48" height="48" viewBox="0 0 48 48" fill="none">
<path d="M2 13C2 6.92487 6.92487 2 13 2H35C41.0751 2 46 6.92487 46 13V35C46 41.0751 41.0751 46 35 46H13C6.92487 46 2 41.0751 2 35V13Z" fill="#2B2D31"/>
<path d="M20.3077 15.5451C21.1008 16.3383 21.4063 17.4986 21.1008 18.5793C22.0789 17.9915 23.1981 17.6834 24.3378 17.6834H24.3609C26.0371 17.6886 27.6415 18.3611 28.8197 19.5522C29.7644 20.5456 31.3354 20.5841 32.3262 19.6395C33.3196 18.6948 33.3582 17.1238 32.4135 16.133C32.3904 16.1073 32.3647 16.0842 32.3391 16.0585C30.2341 13.9305 27.3668 12.7292 24.3737 12.724H24.3301C22.0891 12.7189 19.8995 13.3863 18.041 14.639H18.1103C18.9343 14.639 19.7224 14.965 20.3051 15.5477L20.3077 15.5451Z" fill="white"/>
<path d="M30.5369 27.7639C29.8823 27.7639 29.2534 28.0232 28.7887 28.4827C27.6079 29.6583 26.0087 30.3181 24.3402 30.3181H24.3171C23.1748 30.3181 22.053 30.0023 21.0776 29.4068C21.152 29.6763 21.1879 29.9561 21.1879 30.2359C21.1879 31.9481 19.7992 33.3368 18.087 33.3368H18.0049C19.8608 34.5998 22.053 35.28 24.2991 35.2826H24.3427C27.3204 35.2877 30.1775 34.1095 32.285 32.0071C33.2578 31.0419 33.263 29.471 32.3004 28.4981C31.8357 28.0283 31.1991 27.7639 30.5394 27.7639H30.5369Z" fill="white"/>
<path d="M15.8926 28.0411C16.4727 27.4584 17.2634 27.1298 18.0874 27.1324C18.3723 27.1324 18.6547 27.1709 18.9268 27.2479C17.7203 25.2431 17.7254 22.7352 18.9396 20.7355C17.2865 21.1899 15.5794 20.217 15.1251 18.5639C15.0506 18.2943 15.0147 18.0171 15.0147 17.7399V17.6552C12.4195 21.4671 12.4092 26.4753 14.9839 30.3001V30.2359C14.9839 29.4119 15.3073 28.6238 15.8926 28.0411Z" fill="white"/>
<path d="M18.1154 15.1884C17.4095 15.1884 16.9166 15.481 16.3185 16.0791C15.7487 16.649 15.569 17.147 15.5664 17.7399C15.5664 19.1492 16.7087 20.2889 18.118 20.2889C19.5272 20.2889 20.667 19.1466 20.667 17.7374C20.667 16.3307 19.5247 15.1884 18.118 15.1884H18.1154Z" fill="white"/>
<path d="M15.5303 30.2385C15.5303 30.9418 15.8229 31.4372 16.421 32.0353C16.9909 32.6052 17.4889 32.7875 18.0818 32.7875C19.486 32.7823 20.6206 31.6426 20.6154 30.2385C20.6103 28.8343 19.4706 27.6997 18.0664 27.7049C16.6649 27.71 15.5328 28.8446 15.5328 30.2462V30.2385H15.5303Z" fill="white"/>
</svg>