<svg xmlns:xlink="http://www.w3.org/1999/xlink" xmlns="http://www.w3.org/2000/svg" width="48" height="48" viewBox="0 0 48 48" fill="none">
<path d="M2 12.0571C2 6.50274 6.50274 2 12.0571 2H35.9429C41.4973 2 46 6.50274 46 12.0571V35.9429C46 41.4973 41.4973 46 35.9429 46H12.0571C6.50274 46 2 41.4973 2 35.9429V12.0571Z" fill="#E44F20"/>
<path d="M23.134 18.8676C23.6093 18.5931 24.195 18.5931 24.6703 18.8676L28.0337 20.8094C28.509 21.0838 28.8018 21.591 28.8018 22.1399V26.0236C28.8018 26.5725 28.509 27.0797 28.0337 27.3541L24.6703 29.2959C24.195 29.5704 23.6093 29.5704 23.134 29.2959L19.7706 27.3541C19.2953 27.0797 19.0024 26.5725 19.0024 26.0236V22.1399C19.0024 21.591 19.2953 21.0838 19.7706 20.8094L23.134 18.8676Z" fill="white"/>
<path d="M17.8844 11.7834C18.2816 11.5541 18.771 11.5541 19.1682 11.7834L20.9551 12.8151C21.3523 13.0445 21.597 13.4683 21.597 13.9269V15.9903C21.597 16.449 21.3523 16.8728 20.9551 17.1021L19.1682 18.1338C18.771 18.3631 18.2816 18.3631 17.8844 18.1338L16.0975 17.1021C15.7003 16.8728 15.4556 16.449 15.4556 15.9903V13.9269C15.4556 13.4683 15.7003 13.0445 16.0975 12.8151L17.8844 11.7834Z" fill="white"/>
<path d="M28.7262 11.7834C29.1234 11.5541 29.6128 11.5541 30.01 11.7834L31.7969 12.8151C32.1941 13.0445 32.4388 13.4683 32.4388 13.9269V15.9903C32.4388 16.449 32.1941 16.8728 31.7969 17.1021L30.01 18.1338C29.6128 18.3631 29.1234 18.3631 28.7262 18.1338L26.9393 17.1021C26.5421 16.8728 26.2974 16.449 26.2974 15.9903V13.9269C26.2974 13.4683 26.5421 13.0445 26.9393 12.8151L28.7262 11.7834Z" fill="white"/>
<path d="M33.9708 20.9187C34.368 20.6894 34.8574 20.6894 35.2546 20.9187L37.0416 21.9504C37.4388 22.1797 37.6835 22.6035 37.6835 23.0622V25.1256C37.6835 25.5842 37.4388 26.008 37.0416 26.2374L35.2546 27.2691C34.8574 27.4984 34.368 27.4984 33.9708 27.2691L32.1839 26.2374C31.7867 26.008 31.542 25.5842 31.542 25.1256V23.0622C31.542 22.6035 31.7867 22.1797 32.1839 21.9504L33.9708 20.9187Z" fill="white"/>
<path d="M12.6154 20.9187C13.0126 20.6894 13.502 20.6894 13.8992 20.9187L15.6861 21.9504C16.0833 22.1797 16.328 22.6035 16.328 23.0622V25.1256C16.328 25.5842 16.0833 26.008 15.6861 26.2374L13.8992 27.2691C13.502 27.4984 13.0126 27.4984 12.6154 27.2691L10.8284 26.2374C10.4312 26.008 10.1865 25.5842 10.1865 25.1256V23.0622C10.1865 22.6035 10.4312 22.1797 10.8284 21.9504L12.6154 20.9187Z" fill="white"/>
<path d="M17.8844 29.9832C18.2816 29.7538 18.771 29.7538 19.1682 29.9832L20.9551 31.0148C21.3523 31.2442 21.597 31.668 21.597 32.1267V34.19C21.597 34.6487 21.3523 35.0725 20.9551 35.3018L19.1682 36.3335C18.771 36.5628 18.2816 36.5628 17.8844 36.3335L16.0975 35.3018C15.7003 35.0725 15.4556 34.6487 15.4556 34.19V32.1267C15.4556 31.668 15.7003 31.2442 16.0975 31.0148L17.8844 29.9832Z" fill="white"/>
<path d="M28.7262 29.9832C29.1234 29.7538 29.6128 29.7538 30.01 29.9832L31.7969 31.0148C32.1941 31.2442 32.4388 31.668 32.4388 32.1267V34.19C32.4388 34.6487 32.1941 35.0725 31.7969 35.3018L30.01 36.3335C29.6128 36.5628 29.1234 36.5628 28.7262 36.3335L26.9393 35.3018C26.5421 35.0725 26.2974 34.6487 26.2974 34.19V32.1267C26.2974 31.668 26.5421 31.2442 26.9393 31.0148L28.7262 29.9832Z" fill="white"/>
</svg>