<svg xmlns:xlink="http://www.w3.org/1999/xlink" xmlns="http://www.w3.org/2000/svg" width="24" height="24" viewBox="0 0 24 24" fill="none" color="#1773eb">
<path d="M3.75 23.25L1.736 20.733C1.09773 19.9351 0.750003 18.9438 0.75 17.922V12.75C0.75 11.9216 1.42157 11.25 2.25 11.25V11.25C3.07843 11.25 3.75 11.9216 3.75 12.75V16.5" stroke="currentColor" stroke-width="1.5" stroke-linecap="round" stroke-linejoin="round"/>
<path d="M8.25 23.25V20.114C8.25082 19.2241 7.98735 18.354 7.493 17.614L6.351 15.9C6.15409 15.5716 5.8313 15.3383 5.45778 15.2542C5.08426 15.1701 4.69261 15.2427 4.374 15.455V15.455C3.78496 15.8475 3.58152 16.6179 3.9 17.25L5.25 19.5" stroke="currentColor" stroke-width="1.5" stroke-linecap="round" stroke-linejoin="round"/>
<path d="M20.25 23.25L22.264 20.733C22.9023 19.9351 23.25 18.9438 23.25 17.922V12.75C23.25 11.9216 22.5784 11.25 21.75 11.25V11.25C20.9216 11.25 20.25 11.9216 20.25 12.75V16.5" stroke="currentColor" stroke-width="1.5" stroke-linecap="round" stroke-linejoin="round"/>
<path d="M15.75 23.25V20.114C15.7492 19.2241 16.0127 18.354 16.507 17.614L17.649 15.9C17.8459 15.5716 18.1687 15.3383 18.5422 15.2542C18.9157 15.1701 19.3074 15.2427 19.626 15.455V15.455C20.215 15.8475 20.4185 16.6179 20.1 17.25L18.75 19.5" stroke="currentColor" stroke-width="1.5" stroke-linecap="round" stroke-linejoin="round"/>
<path d="M7.417 2.58299L3.75 5.33299L7.417 8.08299" stroke="currentColor" stroke-width="1.5" stroke-linecap="round" stroke-linejoin="round"/>
<path d="M16.583 2.58299L20.25 5.33299L16.583 8.08299" stroke="currentColor" stroke-width="1.5" stroke-linecap="round" stroke-linejoin="round"/>
<path d="M12.917 0.75L11.083 9.917" stroke="currentColor" stroke-width="1.5" stroke-linecap="round" stroke-linejoin="round"/>
</svg>