<svg width="107" height="43" viewBox="0 0 107 43" fill="none" xmlns="http://www.w3.org/2000/svg">
<path fill-rule="evenodd" clip-rule="evenodd" d="M79.5866 9.09119C79.765 9.13956 79.9177 9.25528 80.0125 9.41396C80.1074 9.57264 80.137 9.76188 80.0951 9.94193L78.7945 15.8092C78.775 15.9501 78.7023 16.0782 78.5914 16.1673C78.4805 16.2563 78.3398 16.2997 78.198 16.2884H76.34C76.2566 16.2885 76.174 16.2716 76.0973 16.2388C76.0206 16.206 75.9513 16.158 75.8937 16.0977C75.8361 16.0373 75.7913 15.9659 75.7622 15.8877C75.733 15.8095 75.72 15.7263 75.724 15.6429C75.724 15.6429 75.724 15.5745 75.724 15.5354C75.812 13.5796 74.5994 12.1813 71.8614 12.1813C67.3045 12.1813 64.0384 15.9167 63.5593 20.8256C63.1095 25.891 66.6494 28.8442 71.5583 28.8442C73.4778 28.8502 75.3871 28.5633 77.2201 27.9935C77.322 27.961 77.4305 27.9555 77.5351 27.9777C77.6397 27.9999 77.7368 28.0489 77.8167 28.1199C77.8966 28.191 77.9566 28.2816 77.9909 28.3828C78.0252 28.4841 78.0325 28.5925 78.0122 28.6975L77.4352 31.7387C77.4153 31.8675 77.3585 31.9877 77.2718 32.0848C77.185 32.182 77.072 32.252 76.9463 32.2863C74.3002 33.0507 71.5544 33.4132 68.8007 33.362C58.533 33.362 54.3672 27.4947 55.0126 21.4417C55.5896 16.083 59.1295 8.19155 73.1131 8.18177C75.3112 8.17978 77.4992 8.47922 79.6159 9.07167M21.765 9.07167C21.7847 8.91856 21.8629 8.779 21.9832 8.68235C22.1036 8.5857 22.2567 8.53946 22.4104 8.55337H32.4923C32.5845 8.55399 32.6753 8.57527 32.7582 8.61568C32.841 8.65609 32.9138 8.7146 32.971 8.78685C33.0283 8.85911 33.0686 8.94333 33.089 9.03323C33.1093 9.12314 33.1093 9.21647 33.0888 9.30635L32.7465 10.8513C32.7262 10.9811 32.6615 11.0999 32.5634 11.1873C32.4653 11.2747 32.34 11.3253 32.2087 11.3305H32.1305C30.9558 11.4489 29.8329 11.8737 28.8742 12.5626L20.5036 19.5838L26.9575 28.3162C28.2092 29.9297 28.8252 30.2132 30.0867 30.2719C30.1823 30.2755 30.2759 30.2999 30.361 30.3435C30.4461 30.3872 30.5206 30.4489 30.5793 30.5244C30.638 30.5999 30.6795 30.6873 30.7008 30.7805C30.7222 30.8737 30.7228 30.9705 30.7028 31.064L30.3507 32.6286C30.3312 32.7687 30.2582 32.8959 30.147 32.9834C30.0358 33.0709 29.895 33.1119 29.7542 33.0979H24.728C19.1639 33.0979 17.6286 30.663 12.9935 22.1849L11.6441 28.3651C11.4387 29.3429 12.2406 29.8319 12.8273 30.0763H12.9055C12.9773 30.0963 13.0443 30.1307 13.1023 30.1775C13.1603 30.2243 13.2082 30.2824 13.243 30.3483C13.2778 30.4142 13.2988 30.4865 13.3046 30.5608C13.3105 30.6351 13.3011 30.7098 13.2771 30.7804L12.8762 32.5895C12.859 32.7314 12.787 32.861 12.6755 32.9505C12.564 33.04 12.422 33.0824 12.2797 33.0686H0.643008C0.546444 33.0697 0.450906 33.0488 0.363625 33.0075C0.276344 32.9662 0.199598 32.9055 0.139271 32.8301C0.0789433 32.7547 0.0366145 32.6666 0.015455 32.5723C-0.00570459 32.4781 -0.00513609 32.3803 0.017156 32.2863L0.359417 30.7413C0.379922 30.5985 0.449874 30.4674 0.557092 30.3709C0.66431 30.2744 0.802 30.2186 0.946146 30.2132C2.01203 30.0861 3.1268 29.4114 3.82109 26.116L6.46136 14.0294C6.63497 13.5443 6.61013 13.0103 6.39224 12.5434C6.17435 12.0765 5.78101 11.7144 5.29769 11.5359H5.1901C5.10932 11.5182 5.03317 11.4838 4.96665 11.4346C4.90012 11.3855 4.84472 11.323 4.80409 11.2509C4.76347 11.1789 4.73852 11.0991 4.73089 11.0167C4.72326 10.9344 4.73313 10.8514 4.75984 10.7732L5.12165 9.15964C5.14128 9.00395 5.22053 8.86194 5.34272 8.76346C5.4649 8.66498 5.62052 8.61773 5.77683 8.63161H16.8463C16.9362 8.63252 17.0248 8.65338 17.1056 8.69273C17.1864 8.73208 17.2575 8.78893 17.3137 8.85913C17.3698 8.92933 17.4097 9.01115 17.4303 9.09865C17.451 9.18614 17.4519 9.27712 17.433 9.36502L17.081 10.959C17.0595 11.0745 17.0059 11.1815 16.9264 11.268C16.8468 11.3545 16.7445 11.4168 16.6312 11.4479H16.5432C16.1604 11.5566 15.8127 11.7636 15.5348 12.0484C15.2568 12.3332 15.0583 12.6858 14.959 13.0711L13.4825 19.7989L22.0682 12.6604C22.1833 12.5919 22.275 12.4901 22.3312 12.3685C22.3875 12.2469 22.4058 12.1112 22.3836 11.979C22.3614 11.8469 22.2998 11.7245 22.2069 11.628C22.1139 11.5315 21.994 11.4653 21.8628 11.4381C21.7767 11.4233 21.6949 11.3898 21.6232 11.34C21.5515 11.2901 21.4916 11.2251 21.4478 11.1495C21.4039 11.074 21.3772 10.9897 21.3695 10.9027C21.3618 10.8157 21.3733 10.7281 21.4032 10.646L21.7455 9.11076M52.7733 15.8385C52.6863 15.8391 52.6002 15.8211 52.5206 15.786C52.441 15.7509 52.3698 15.6992 52.3116 15.6346C52.2534 15.5699 52.2095 15.4937 52.1829 15.4108C52.1563 15.328 52.1476 15.2405 52.1573 15.154V15.0758C52.2551 13.5405 51.727 12.6507 50.0157 12.6507H44.6961L43.2782 19.1339H50.8958C50.987 19.1349 51.0768 19.156 51.1588 19.1958C51.2408 19.2357 51.3129 19.2932 51.37 19.3643C51.427 19.4354 51.4676 19.5183 51.4887 19.607C51.5099 19.6957 51.5111 19.7879 51.4923 19.8771L50.7491 23.2214C50.7296 23.3623 50.657 23.4905 50.5461 23.5795C50.4352 23.6686 50.2944 23.7119 50.1526 23.7006H42.2612C42.2612 23.7006 41.3811 27.6707 41.3518 27.8468C41.2533 28.2971 41.317 28.7678 41.5317 29.1757C41.7464 29.5836 42.0983 29.9026 42.5253 30.0763H42.6132C42.7429 30.121 42.8501 30.2143 42.9121 30.3366C42.9742 30.4589 42.9862 30.6005 42.9457 30.7315L42.5448 32.5601C42.5276 32.702 42.4556 32.8316 42.3441 32.9211C42.2327 33.0107 42.0906 33.0531 41.9483 33.0392H32.6683C32.5765 33.0401 32.4858 33.0202 32.4029 32.9809C32.32 32.9417 32.247 32.8841 32.1896 32.8125C32.1322 32.741 32.0917 32.6573 32.0713 32.5679C32.0509 32.4784 32.0511 32.3855 32.0718 32.2961L36.1495 14.0294C36.2404 13.7838 36.2809 13.5225 36.2689 13.2609C36.2568 12.9993 36.1923 12.7427 36.0792 12.5065C35.9661 12.2703 35.8068 12.0592 35.6105 11.8857C35.4143 11.7123 35.1853 11.58 34.937 11.4968H34.8685C34.7913 11.4791 34.7187 11.4454 34.6553 11.3979C34.592 11.3504 34.5393 11.2902 34.5006 11.2211C34.4619 11.152 34.4381 11.0756 34.4307 10.9967C34.4234 10.9179 34.4326 10.8384 34.4578 10.7634L34.8196 9.14986C34.8393 8.99416 34.9185 8.85215 35.0407 8.75367C35.1629 8.65519 35.3185 8.60794 35.4748 8.62183H56.0981C56.1893 8.62276 56.2791 8.64388 56.3611 8.68372C56.4431 8.72356 56.5152 8.78111 56.5723 8.85221C56.6293 8.9233 56.6699 9.00621 56.691 9.09489C56.7122 9.18356 56.7134 9.27582 56.6946 9.36502L55.3647 15.3692C55.3452 15.5101 55.2725 15.6381 55.1616 15.7272C55.0507 15.8163 54.91 15.8596 54.7682 15.8483H52.8124" fill="white"/>
</svg>
