<svg width="100" height="40" viewBox="0 0 100 40" fill="none" xmlns="http://www.w3.org/2000/svg">
<g clip-path="url(#clip0_10549_97036)">
<path fill-rule="evenodd" clip-rule="evenodd" d="M36.9428 14.9419C36.9368 14.0018 36.9368 13.0622 36.9428 12.1221C35.3686 11.8571 33.5555 11.9618 32.294 13.0527C31.1654 14.0694 30.9436 15.6862 30.9841 17.1292H30.9521H29.6052C29.6067 18.0683 29.6067 19.0079 29.6052 19.9475H30.7698L30.7702 19.9475C30.844 19.947 30.9178 19.9465 30.9916 19.9465V19.9475H30.9981V21.4877H30.9931C30.9956 23.7932 30.9966 26.0996 30.9916 28.4051H32.4734L32.7664 28.4051C33.2544 28.4052 33.7426 28.4053 34.2305 28.4036C34.229 26.0636 34.2275 23.724 34.231 21.385V19.9445H36.3913C36.3893 19.0044 36.3893 18.0658 36.3913 17.1272H34.215C34.2193 17.0331 34.2214 16.9363 34.2234 16.838V16.8379C34.2354 16.2743 34.2483 15.6651 34.6916 15.265C35.2183 14.8215 35.9191 14.8718 36.5747 14.9189C36.6996 14.9278 36.8228 14.9367 36.9428 14.9419ZM44.4607 19.9453C44.4587 19.0076 44.4587 18.0695 44.4607 17.1314C43.6563 17.1259 42.854 17.1274 42.0496 17.1294C42.0476 16.1067 42.0456 15.0834 42.0536 14.0626C41.0565 14.0678 40.0575 14.0664 39.0606 14.0649L38.8627 14.0646V17.1274H37.5397C37.5384 17.753 37.5388 18.3786 37.5393 19.0048C37.5395 19.3181 37.5397 19.6316 37.5397 19.9453H38.8607V19.9473H38.8627C38.865 20.5182 38.8638 21.0897 38.8625 21.6611C38.8619 21.9468 38.8613 22.2325 38.8612 22.5182C38.8607 22.5888 38.8607 22.6593 38.8607 22.7299V22.7315L38.8604 22.8122L38.8602 22.8928H38.8607C38.8607 23.3922 38.8622 23.8915 38.8687 24.3909C38.8956 25.7412 39.3857 27.1877 40.5198 27.9811C41.518 28.6968 42.7615 28.8305 43.9551 28.8145C42.9734 27.7892 42.3843 26.2912 42.1475 25.0881L42.1405 25.053L42.136 25.0175C42.1041 24.7535 42.0641 24.3293 42.0686 23.8815C42.0611 23.7859 42.0556 23.6907 42.0516 23.597C42.0489 23.4084 42.0483 23.2197 42.0477 23.0313V23.0311V23.0309V23.0307V23.0305V23.0303V23.0301V23.0299V23.0297V23.0295L42.0471 22.8673C42.0447 22.3535 42.0464 21.8399 42.0481 21.3266V21.3263V21.3261V21.3258V21.3256V21.3253V21.3251V21.3248V21.3246V21.3243C42.0495 20.8651 42.051 20.4061 42.0496 19.9473C42.852 19.9493 43.6563 19.9493 44.4607 19.9453ZM26.6408 28.4054H25.2019C25.2059 28.2551 25.2114 27.9601 25.2134 27.8124C23.8015 28.773 21.7836 28.8872 20.3948 27.8259C18.915 26.7425 18.6297 24.4761 19.6289 22.9775C20.2484 22.0359 21.334 21.498 22.4296 21.3628C23.1695 21.2124 23.9128 21.3227 24.65 21.432C24.8337 21.4592 25.0171 21.4864 25.1999 21.5095C25.1055 20.9275 24.8777 20.2834 24.2682 20.0731C22.9582 19.5817 21.5154 19.8817 20.1924 20.1697C20.1929 19.8101 20.1926 19.4506 20.1923 19.0912C20.1917 18.4239 20.1911 17.757 20.1959 17.0909C22.2523 16.7604 24.511 16.5435 26.4384 17.5046C27.7863 18.1698 28.3229 19.742 28.3479 21.1594C28.3698 22.5373 28.3667 23.9149 28.3637 25.2925V25.2926V25.2926V25.2926V25.2926V25.2927V25.2927V25.2927V25.2927C28.3613 26.3303 28.359 27.3678 28.3674 28.4054H27.4581C27.277 28.405 27.0961 28.4052 26.9153 28.4053H26.913L26.6408 28.4054ZM22.4956 25.9246C23.248 26.4991 24.2487 26.2186 25.0685 25.9652C25.1629 25.2419 25.1689 24.5112 25.096 23.7859C24.2891 23.6252 23.4019 23.4844 22.642 23.8866C21.8976 24.2693 21.8086 25.4393 22.4956 25.9246ZM8.64407 13.1129C9.55088 13.1181 10.4577 13.117 11.3645 13.1158C11.7482 13.1154 12.1318 13.1149 12.5155 13.1149C11.6857 14.2336 10.8642 15.3586 10.0426 16.4835C8.99237 17.9217 7.94217 19.3597 6.87499 20.7845C7.54039 21.7814 8.20162 22.7806 8.86278 23.7797L8.86309 23.7802L8.86323 23.7804C9.88478 25.3241 10.9061 26.8675 11.9424 28.4016C11.2939 28.4065 10.6452 28.4058 9.99676 28.4051H9.9967H9.99664H9.99658H9.99652H9.99646H9.9964H9.99634C9.30664 28.4044 8.61713 28.4037 7.92814 28.4097C7.5371 27.8146 7.14578 27.2198 6.75446 26.6249C5.65391 24.9519 4.55333 23.2788 3.45873 21.6025C3.45523 23.8709 3.45523 26.1393 3.46072 28.4077C2.6367 28.4034 1.81267 28.4042 0.988644 28.405C0.659096 28.4053 0.329548 28.4056 0 28.4056C0.0039968 23.3099 0.0039968 18.2141 0 13.1184C0.576787 13.1156 1.1532 13.1156 1.72955 13.1156C2.3059 13.1156 2.88219 13.1156 3.45873 13.1129L3.45796 13.9789C3.45605 16.0959 3.45413 18.2128 3.46072 20.3298C4.4398 18.9578 5.42454 17.59 6.40924 16.2222L6.40928 16.2222L6.40932 16.2221L6.40936 16.2221L6.4094 16.222L6.40944 16.222L6.40948 16.2219L6.40952 16.2219L6.40954 16.2218L6.40956 16.2218L6.40958 16.2218L6.4096 16.2217L6.40963 16.2217L6.40965 16.2217L6.40967 16.2216C7.15532 15.186 7.90095 14.1503 8.64407 13.1129ZM14.3766 17.1616C13.8329 17.1616 13.2895 17.1616 12.7464 17.1644C12.7484 20.9103 12.7484 24.6562 12.7464 28.4037C13.842 28.4062 14.9396 28.4062 16.0373 28.4062C16.0379 27.8315 16.0351 27.2566 16.0324 26.6816V26.6814C16.0265 25.4707 16.0207 24.2599 16.0468 23.051C16.0972 21.5504 17.5226 20.5136 18.9095 20.3473C18.9323 19.5072 18.9288 18.6659 18.9253 17.8253V17.825V17.8247V17.8244V17.8242V17.8239V17.8236C18.9243 17.5968 18.9234 17.37 18.9229 17.1433C17.6575 17.3482 16.5179 18.1235 15.9908 19.3151C16.0005 18.7353 16.0033 18.1547 16.0062 17.5738L16.0083 17.1588C15.4642 17.1616 14.9203 17.1616 14.3766 17.1616ZM70.6547 26.1204C70.4749 26.1924 70.3519 26.2502 70.2353 26.3051C70.0567 26.389 69.8931 26.4659 69.5631 26.5762C69.017 26.759 68.38 26.759 67.8339 26.5762C66.1053 25.8469 67.1974 23.2014 67.1974 23.2014C74.2943 21.4684 73.2936 17.6373 71.3826 17.4545C70.1995 17.4545 65.9235 17.6373 63.9216 22.5628C63.6488 23.2926 61.7378 28.492 66.0144 28.8566C66.9242 28.8566 67.9254 28.7655 68.8351 28.3097C69.654 27.8534 70.291 27.306 70.8365 26.5762C71.2917 25.7553 70.6547 26.1204 70.6547 26.1204ZM69.654 18.8229C70.1995 19.0052 68.8351 21.7419 68.8351 21.7419L68.8285 21.7441C68.2846 21.9257 67.7415 22.107 67.3793 22.107C67.4091 22.0471 67.4611 21.9036 67.5318 21.708C67.8921 20.7122 68.7411 18.3657 69.654 18.8229ZM87.0315 27.0331C87.0997 27.0559 87.1679 27.0787 87.2133 27.1243C87.4861 27.1243 87.4861 27.3066 86.9405 27.6717C86.6673 27.854 83.7556 29.1312 83.1191 28.675C82.3912 28.4015 82.8458 26.942 83.1191 26.2122C83.2477 25.8681 83.4776 25.0168 83.7514 24.0027L83.7514 24.0026C84.0582 22.8664 84.4202 21.5258 84.7568 20.4653C84.7627 20.4358 84.7689 20.4055 84.7753 20.3747L84.7755 20.3739C84.8676 19.9292 84.982 19.3769 84.3017 19.4621C83.8465 19.5533 82.573 20.1919 82.2088 21.5602C81.9424 22.5224 81.6133 23.5786 81.3865 24.3064C81.2264 24.8205 81.1172 25.1708 81.1172 25.2085C80.8045 26.3058 80.85 26.8344 80.8775 27.1544C80.8981 27.3931 80.9086 27.5157 80.753 27.6717C80.6621 27.7629 80.3893 27.9452 80.1165 28.0364C79.8432 28.2192 77.9328 29.0401 77.4776 28.675C76.8406 28.2192 77.2048 26.8508 77.4776 26.1211C77.6274 25.7212 78.0229 24.3899 78.4097 23.088L78.4097 23.0878L78.4098 23.0877L78.4101 23.0866L78.4106 23.0849C78.7293 22.0121 79.042 20.9598 79.2062 20.4653C79.3886 19.8267 79.2972 19.5533 79.0244 19.1886C78.7516 18.9147 79.0244 18.6412 79.2062 18.6412C79.8432 18.0938 82.4821 17.2729 82.9368 17.4552C83.301 17.638 83.1191 18.4589 82.9368 19.0058C82.9368 19.0058 84.4835 17.638 86.6673 17.2729C89.0906 16.9261 88.6329 18.6416 88.5041 19.1244C88.4975 19.1492 88.4918 19.1708 88.4873 19.1886L86.8496 25.0262C86.829 25.1496 86.7899 25.2961 86.748 25.4533C86.6041 25.9935 86.4266 26.6592 86.8496 26.942C86.8951 26.9876 86.9633 27.0103 87.0315 27.0331ZM76.1121 27.1243C76.0425 27.0894 75.9862 27.0679 75.9382 27.0495C75.8606 27.0198 75.8043 26.9983 75.7478 26.942C75.2244 26.5917 75.538 25.654 75.7249 25.095L75.7478 25.0262L77.477 19.1886C77.4997 19.029 77.5395 18.8579 77.5793 18.6869C77.6986 18.1738 77.8179 17.6606 77.477 17.4552C76.9309 17.2728 74.292 18.0938 73.6555 18.6412C73.5641 18.6412 73.2913 18.9147 73.5641 19.1886C73.8374 19.5533 73.8374 19.8267 73.6555 20.4653C73.3822 21.5602 72.1083 25.4825 71.8355 26.2122C71.5627 26.942 71.1985 28.4015 72.0173 28.6749C72.6543 29.1312 75.3841 27.9452 75.7478 27.6717C76.3848 27.3978 76.3848 27.1243 76.1121 27.1243ZM78.205 15.2664C77.3857 15.7227 75.748 16.4519 75.5661 16.0873C75.0201 15.905 75.6571 14.1715 75.8389 13.8069C76.385 12.8948 78.5687 12.6208 78.9329 12.712C79.2057 12.8037 79.2057 13.0771 79.1148 13.2594C79.0435 13.6171 78.9722 13.8624 78.8569 14.2594C78.8251 14.3688 78.79 14.4898 78.7506 14.6278C78.6772 14.8484 78.4263 15.0694 78.2843 15.1944L78.2841 15.1946L78.2839 15.1947C78.2501 15.2245 78.2225 15.2488 78.205 15.2664ZM99.9516 22.4724C99.6788 21.4691 98.0406 21.1952 97.4041 21.7426C97.0399 22.1072 96.858 22.837 96.949 23.0198C98.4957 22.5635 98.7685 23.9319 98.4957 24.4788C97.9497 25.3002 97.7678 25.5737 97.0399 25.5737H92.2178L92.2174 25.5733C92.1266 25.4823 92.0357 25.3911 92.2178 25.2086C92.4905 24.8439 97.2217 18.3678 97.4041 18.0938L97.4215 18.0595C97.5236 17.8602 97.7309 17.4552 97.1308 17.4552H91.8536C91.308 17.4552 91.0347 17.6375 90.5801 18.0938C90.2159 18.5501 89.7612 19.918 89.488 20.8305C89.488 20.8305 89.488 21.1952 90.034 20.7394C90.055 20.7182 90.0808 20.6825 90.1115 20.6401C90.2138 20.4988 90.3699 20.2831 90.5801 20.2831H93.7645C94.309 20.2831 92.9949 21.7685 91.4197 23.5489C90.0999 25.0406 88.5969 26.7394 87.8503 27.9453C87.5775 28.4016 88.0321 28.4016 88.3054 28.4016H95.2204C95.5277 28.4016 95.7717 28.4102 95.9704 28.4172C96.3652 28.4312 96.5809 28.4389 96.7578 28.3598C96.9709 28.2645 97.1277 28.0434 97.4735 27.5561C97.5089 27.5062 97.5463 27.4535 97.586 27.3978C97.586 27.3978 100.406 23.7496 99.9516 22.4724ZM63.829 18.1843L61.9181 25.573C61.5543 26.4851 62.1913 27.1237 62.3732 27.2149C62.4641 27.306 62.4641 27.4888 62.3732 27.58C62.2823 27.6711 61.1901 28.6744 58.4603 28.6744C57.7324 28.7655 57.9148 27.3972 58.1875 26.5763C58.4603 25.573 59.5525 21.4685 59.5525 21.4685H56.8226C56.8226 21.4685 56.368 23.0191 56.0947 23.9312C55.9129 24.661 55.3668 25.6642 54.548 26.3939C54.5257 26.4089 54.4957 26.4293 54.4587 26.4546C53.5893 27.048 48.7879 30.3253 45.9953 28.4009C44.9037 27.6711 44.1758 26.1205 43.9025 24.7521C43.8251 24.1296 43.8136 23.1093 43.9814 22.8223C43.9884 22.8103 43.9989 22.7973 44.0119 22.7842C44.0119 22.7842 44.0289 22.7482 44.2897 22.5614C44.2902 22.5609 44.2907 22.5606 44.2912 22.5604C44.2917 22.5601 44.2922 22.5599 44.2927 22.5594C44.9357 22.0966 46.5214 21.4685 46.996 21.4685C47.1488 21.4685 47.1307 21.7822 47.101 22.298C47.0776 22.7046 47.0469 23.2369 47.0869 23.8401C47.1779 24.9344 47.633 26.3939 48.3609 27.1237C48.6337 27.306 48.9979 27.4888 49.3616 27.58C49.7258 27.6711 50.0895 27.6711 50.3628 27.58C51.5454 27.2149 52.7284 24.661 53.0012 23.4749C53.2163 22.742 53.6753 21.0922 54.1188 19.4981C54.6136 17.7195 55.0891 16.0103 55.185 15.7216C55.2282 15.548 55.2767 15.3795 55.3229 15.2187C55.4711 14.7035 55.5967 14.2665 55.4577 13.9886C55.3668 13.8058 54.9122 13.7147 54.7298 13.7147C54.1843 13.6235 53.7291 13.6235 53.1831 13.7147C53.1727 13.7172 53.1608 13.7201 53.1474 13.7234C52.6919 13.834 50.555 14.353 50.9084 17.4546C50.974 18.0441 51.2739 18.6336 51.5051 19.0881C51.5958 19.2665 51.676 19.4241 51.7272 19.5527C51.9096 19.9173 51.8187 20.009 51.6363 20.009C51.7272 20.009 49.3616 20.3736 49.0888 20.1913C48.9979 20.1001 48.8161 19.9173 48.7251 19.6438C47.9058 17.4546 48.27 16.269 48.5428 15.6304C48.907 14.5356 50.0895 13.8058 50.9084 13.5323C52.6291 12.9286 57.8464 13.0586 58.488 13.0746C58.525 13.0755 58.5468 13.0761 58.5518 13.0761C59.0973 13.0761 59.0973 13.4412 59.0064 13.7147C58.8245 14.3532 57.1869 20.2824 57.1869 20.2824H59.9162L61.1901 15.6304C61.372 14.6267 62.1913 13.0761 63.283 13.0761H66.2856C66.2317 13.13 66.1741 13.1801 66.1122 13.2339C65.6507 13.6354 64.9519 14.2431 63.829 18.1843Z" fill="#2B2D31" style="fill:#2B2D31;fill:color(display-p3 0.1677 0.1773 0.1917);fill-opacity:1;"/>
</g>
<defs>
<clipPath id="clip0_10549_97036">
<rect width="100" height="40" fill="white" style="fill:white;fill-opacity:1;"/>
</clipPath>
</defs>
</svg>
