<svg xmlns:xlink="http://www.w3.org/1999/xlink" xmlns="http://www.w3.org/2000/svg" width="48" height="48" viewBox="0 0 48 48" fill="none">
<path d="M2 12.0571C2 6.50274 6.50274 2 12.0571 2H35.9429C41.4973 2 46 6.50274 46 12.0571V35.9429C46 41.4973 41.4973 46 35.9429 46H12.0571C6.50274 46 2 41.4973 2 35.9429V12.0571Z" fill="#A6B5C7"/>
<path fill-rule="evenodd" clip-rule="evenodd" d="M13 35V25.3356C14.0503 25.6827 15.1979 25.7878 16.3049 25.6489V30.4925C16.3049 30.5992 16.3512 30.7015 16.4334 30.7771C16.5157 30.8524 16.6273 30.8948 16.7436 30.8948H25.5169C25.6333 30.8948 25.7448 30.8524 25.8271 30.7771C25.9094 30.7015 25.9556 30.5992 25.9556 30.4925V25.5057C26.8781 25.2838 27.7379 24.8998 28.4436 24.3538C30.2362 25.7406 32.8291 26.0555 34.9999 25.3186V35C34.9999 35.4862 34.8067 35.9526 34.463 36.2963C34.1192 36.6401 33.6528 36.8333 33.1666 36.8333H14.8333C14.3471 36.8333 13.8808 36.6401 13.537 36.2963C13.1932 35.9526 13 35.4862 13 35Z" fill="white"/>
<path d="M14.0027 11.6951C14.1535 11.3726 14.4772 11.1666 14.8331 11.1666H33.1661C33.5221 11.1666 33.8457 11.3726 33.9966 11.6951L36.7464 17.5771C36.8153 17.7244 36.8426 17.8846 36.8296 18.0416H36.8331V19.7749C36.8331 20.7347 36.418 21.6553 35.6792 22.334C34.9404 23.0127 33.9383 23.394 32.8935 23.394H32.401C31.3562 23.394 30.3541 23.0127 29.6153 22.334C29.3232 22.0657 29.0818 21.7596 28.8965 21.4283C28.6781 21.0791 28.257 21.0712 28.0167 21.4454C27.8327 21.7701 27.5946 22.0703 27.3076 22.334C26.5687 23.0127 25.5667 23.394 24.5218 23.394H23.5369C22.4921 23.394 21.49 23.0127 20.7512 22.334C20.4442 22.052 20.1931 21.7282 20.0045 21.3772C19.7866 21.0921 19.4092 21.09 19.177 21.4013C18.9899 21.743 18.7434 22.0584 18.4434 22.334C17.7046 23.0127 16.7025 23.394 15.6577 23.394H15.1061C14.0613 23.394 13.0592 23.0127 12.3204 22.334C11.5816 21.6553 11.1665 20.7347 11.1665 19.7749V18.0416H11.1697C11.1566 17.8846 11.1839 17.7244 11.2528 17.5771L14.0027 11.6951Z" fill="white"/>
</svg>