<svg xmlns:xlink="http://www.w3.org/1999/xlink" xmlns="http://www.w3.org/2000/svg" viewBox="0 0 24 24" stroke-width="1.5" color="#1773eb" width="24"  height="24" ><path d="M17.25,14.452c0-1.492,2.662-2.353,5.479-2.448a.565.565,0,0,1,.367.113.38.38,0,0,1,.154.3v6.552a.457.457,0,0,1-.48.409A9.633,9.633,0,0,0,17.25,21a9.633,9.633,0,0,0-5.52-1.629.458.458,0,0,1-.48-.409V12.413a.38.38,0,0,1,.154-.3A.565.565,0,0,1,11.771,12C14.588,12.1,17.25,12.96,17.25,14.452Z" fill="none" stroke="currentColor" stroke-linecap="round" stroke-linejoin="round"/><path d="M17.25 14.452L17.25 21.003" fill="none" stroke="currentColor" stroke-linecap="round" stroke-linejoin="round"/><path d="M8.25,17.253H1.75a1.012,1.012,0,0,1-1-1.017V4.021A1.013,1.013,0,0,1,1.75,3h16a1.012,1.012,0,0,1,1,1.018v5.09" fill="none" stroke="currentColor" stroke-linecap="round" stroke-linejoin="round"/><path d="M4.663 21.003L8.25 21.003" fill="none" stroke="currentColor" stroke-linecap="round" stroke-linejoin="round"/><path d="M8.25 17.253L8.25 21.003" fill="none" stroke="currentColor" stroke-linecap="round" stroke-linejoin="round"/><path d="M3.75 6.753L6.75 9.003 3.75 11.253" fill="none" stroke="currentColor" stroke-linecap="round" stroke-linejoin="round"/><path d="M9.75 9.003L13.5 9.003" fill="none" stroke="currentColor" stroke-linecap="round" stroke-linejoin="round"/></svg>