<svg xmlns:xlink="http://www.w3.org/1999/xlink" xmlns="http://www.w3.org/2000/svg" viewBox="0 0 24 24" color="#1773eb" width="24"  height="24" ><defs/><title>task-list-text</title><path d="M22.371,17.38l-4.992,4.992a3,3,0,0,1-2.122.879H3.75a3,3,0,0,1-3-3V3.751a3,3,0,0,1,3-3h16.5a3,3,0,0,1,3,3V15.258A3,3,0,0,1,22.371,17.38Z" fill="none" stroke="currentColor" stroke-linecap="round" stroke-linejoin="round" stroke-width="1.5px"/><path d="M15.75,23.21V18.751a3,3,0,0,1,3-3h4.459" fill="none" stroke="currentColor" stroke-linecap="round" stroke-linejoin="round" stroke-width="1.5px"/><line x1="7" y1="5" x2="7" y2="19" fill="none" stroke="currentColor" stroke-linecap="round" stroke-linejoin="round" stroke-width="1.5px"/><line x1="4" y1="7.5" x2="18" y2="7.5" fill="none" stroke="currentColor" stroke-linecap="round" stroke-linejoin="round" stroke-width="1.5px"/><line x1="4" y1="12" x2="18" y2="12" fill="none" stroke="currentColor" stroke-linecap="round" stroke-linejoin="round" stroke-width="1.5px"/><line x1="4" y1="16.5" x2="12" y2="16.5" fill="none" stroke="currentColor" stroke-linecap="round" stroke-linejoin="round" stroke-width="1.5px"/></svg>