<svg xmlns:xlink="http://www.w3.org/1999/xlink" xmlns="http://www.w3.org/2000/svg" fill="none" viewBox="0 0 24 24" color="#1773eb" width="24"  height="24" ><path stroke="currentColor" stroke-linecap="round" stroke-linejoin="round" stroke-width="1.5" d="M21.75 0.75H2.25C1.42157 0.75 0.75 1.42157 0.75 2.25V6C0.75 6.82843 1.42157 7.5 2.25 7.5H21.75C22.5784 7.5 23.25 6.82843 23.25 6V2.25C23.25 1.42157 22.5784 0.75 21.75 0.75Z"/><path stroke="currentColor" stroke-linecap="round" stroke-linejoin="round" stroke-width="1.5" d="M15.75 0.75V7.5"/><path stroke="currentColor" stroke-linecap="round" stroke-linejoin="round" stroke-width="1.5" d="M18 3.75L19.5 5.25L21 3.75"/><path stroke="currentColor" stroke-linecap="round" stroke-linejoin="round" stroke-width="1.5" d="M21.75 11.25H2.25C1.42157 11.25 0.75 11.9216 0.75 12.75V21.75C0.75 22.5784 1.42157 23.25 2.25 23.25H21.75C22.5784 23.25 23.25 22.5784 23.25 21.75V12.75C23.25 11.9216 22.5784 11.25 21.75 11.25Z"/><path stroke="currentColor" stroke-linecap="round" stroke-linejoin="round" stroke-width="1.5" d="M0.75 17.25H23.25"/><path stroke="currentColor" stroke-width="1.5" d="M19.5 14.5811C19.2929 14.5811 19.125 14.4132 19.125 14.2061C19.125 13.9989 19.2929 13.8311 19.5 13.8311"/><path stroke="currentColor" stroke-width="1.5" d="M19.5 14.5811C19.7071 14.5811 19.875 14.4132 19.875 14.2061C19.875 13.9989 19.7071 13.8311 19.5 13.8311"/><g><path stroke="currentColor" stroke-width="1.5" d="M19.5 20.6689C19.2929 20.6689 19.125 20.5011 19.125 20.2939C19.125 20.0868 19.2929 19.9189 19.5 19.9189"/><path stroke="currentColor" stroke-width="1.5" d="M19.5 20.6689C19.7071 20.6689 19.875 20.5011 19.875 20.2939C19.875 20.0868 19.7071 19.9189 19.5 19.9189"/></g></svg>