<svg xmlns:xlink="http://www.w3.org/1999/xlink" xmlns="http://www.w3.org/2000/svg" fill="none" viewBox="0 0 24 24" color="#1773eb" width="24"  height="24" >
  <path stroke="currentColor" stroke-linecap="round" stroke-linejoin="round" stroke-width="1.5" d="M2.564 16.767a2.567 2.567 0 1 0 5.134 0 2.567 2.567 0 0 0-5.134 0v0Zm6.698 6.234a4.375 4.375 0 0 0-8.262 0h8.262Zm7.041-6.234a2.567 2.567 0 1 0 5.134 0 2.567 2.567 0 0 0-5.134 0ZM23 23.001a4.375 4.375 0 0 0-8.261 0H23ZM5.4 7.6a6.6 6.6 0 1 0 13.2 0 6.6 6.6 0 0 0-13.2 0v0Zm.375 2.2h12.45M5.775 5.4h12.45"/>
  <path stroke="currentColor" stroke-linecap="round" stroke-linejoin="round" stroke-width="1.5" d="M10.576 1.154a21.378 21.378 0 0 0 .498 12.982m2.349-12.982c.517 1.86.778 3.782.777 5.713a21.22 21.22 0 0 1-1.271 7.269"/>
</svg>