<svg xmlns:xlink="http://www.w3.org/1999/xlink" xmlns="http://www.w3.org/2000/svg" fill="none" viewBox="0 0 22 22" color="#1773eb" width="22"  height="22" >
  <path stroke="currentColor" stroke-linecap="round" stroke-linejoin="round" stroke-width="1.5" d="M10.333 15.667a5.333 5.333 0 1 0 10.667 0 5.333 5.333 0 0 0-10.667 0Z"/>
  <path stroke="currentColor" stroke-linecap="round" stroke-linejoin="round" stroke-width="1.5" d="m18.044 14.116-2.583 3.443a.667.667 0 0 1-1.005.071l-1.333-1.333M3 3.667a2.667 2.667 0 1 0 5.333 0 2.667 2.667 0 0 0-5.333 0v0Zm6.716 6.344A4.668 4.668 0 0 0 1 12.334v2h2L3.667 21h4l.287-2.874"/>
</svg>