<svg xmlns:xlink="http://www.w3.org/1999/xlink" xmlns="http://www.w3.org/2000/svg" width="48" height="48" viewBox="0 0 48 48" fill="none">
<path d="M2 12.0571C2 6.50274 6.50274 2 12.0571 2H35.9429C41.4973 2 46 6.50274 46 12.0571V35.9429C46 41.4973 41.4973 46 35.9429 46H12.0571C6.50274 46 2 41.4973 2 35.9429V12.0571Z" fill="#FFDA00"/>
<path d="M35.6516 19.5827C35.6526 19.8401 35.5856 20.0931 35.4574 20.3162C35.3291 20.5393 35.1443 20.7245 34.9214 20.8532L24.6994 26.6943C24.4774 26.8225 24.2256 26.89 23.9693 26.89C23.7129 26.89 23.4611 26.8225 23.2391 26.6943L13.0171 20.8532C12.7924 20.7258 12.6055 20.5411 12.4754 20.3179C12.3454 20.0947 12.2769 19.8411 12.2769 19.5827C12.2769 19.3244 12.3454 19.0707 12.4754 18.8475C12.6055 18.6244 12.7924 18.4397 13.0171 18.3123L23.2391 12.4712C23.4611 12.343 23.7129 12.2755 23.9693 12.2755C24.2256 12.2755 24.4774 12.343 24.6994 12.4712L34.9214 18.3123C35.1443 18.4409 35.3291 18.6262 35.4574 18.8493C35.5856 19.0724 35.6526 19.3254 35.6516 19.5827Z" fill="white"/>
<path d="M34.9214 27.0741L32.4243 25.6138L26.1451 29.2061C25.4846 29.5922 24.7344 29.7986 23.9693 29.8048C23.2117 29.805 22.4671 29.6088 21.8081 29.2353L15.5142 25.643L13.0171 27.1033C12.7924 27.2306 12.6055 27.4153 12.4754 27.6385C12.3454 27.8617 12.2769 28.1154 12.2769 28.3737C12.2769 28.632 12.3454 28.8857 12.4754 29.1089C12.6055 29.3321 12.7924 29.5168 13.0171 29.6442L23.2391 35.4853C23.4611 35.6135 23.7129 35.6809 23.9693 35.6809C24.2256 35.6809 24.4774 35.6135 24.6994 35.4853L34.9214 29.6442C35.1461 29.5168 35.3331 29.3321 35.4631 29.1089C35.5932 28.8857 35.6617 28.632 35.6617 28.3737C35.6617 28.1154 35.5932 27.8617 35.4631 27.6385C35.3331 27.4153 35.1461 27.2306 34.9214 27.1033V27.0741Z" fill="white"/>
</svg>