<svg xmlns:xlink="http://www.w3.org/1999/xlink" xmlns="http://www.w3.org/2000/svg" width="20" height="20" fill="currentColor" viewBox="0 0 20 20" color="#0B6AE6" size="22"><path stroke="currentColor" stroke-width="0.5" stroke-linecap="round" stroke-linejoin="round" d="M15.18 14.24c1.172-1.408 1.91-3.218 1.91-5.195C17.09 4.62 13.47 1 9.044 1S1 4.62 1 9.045c0 4.424 3.62 8.044 8.045 8.044a7.932 7.932 0 0 0 5.195-1.91l3.62 3.62a.662.662 0 0 0 .47.2.662.662 0 0 0 .47-.2.648.648 0 0 0 0-.94l-3.62-3.62zm-6.135 1.542c-3.687 0-6.704-3.017-6.704-6.704S5.36 2.374 9.046 2.374 15.75 5.39 15.75 9.078s-3.018 6.704-6.705 6.704z"/></svg>