<svg xmlns:xlink="http://www.w3.org/1999/xlink" xmlns="http://www.w3.org/2000/svg" width="48" height="48" viewBox="0 0 48 48" fill="none">
<path d="M2 12.0572C2 6.50274 6.50274 2 12.0571 2H35.9429C41.4973 2 46 6.50274 46 12.0571V35.9429C46 41.4973 41.4973 46 35.9429 46H12.0572C6.50274 46 2 41.4973 2 35.9429V12.0572Z" fill="#1770E6"/>
<path d="M21.8945 16.8806C21.8945 15.7596 20.9858 14.8508 19.8647 14.8508L15.9389 14.8508C14.8179 14.8508 13.9091 15.7596 13.9091 16.8806L13.9091 21.7426C13.9091 22.8636 14.8179 23.7723 15.9389 23.7723L19.8647 23.7723C20.9858 23.7723 21.8945 22.8636 21.8945 21.7426L21.8945 16.8806Z" fill="white"/>
<path fill-rule="evenodd" clip-rule="evenodd" d="M31.9086 23.7723C33.0461 23.7723 33.9683 22.8667 33.9683 21.7496L33.9683 14.3328C33.9683 13.2157 33.0461 12.31 31.9086 12.31L25.4444 12.31C24.3069 12.31 23.3847 13.2157 23.3847 14.3328L23.3847 21.7496C23.3847 22.8667 24.3069 23.7723 25.4444 23.7723L31.9086 23.7723Z" fill="white"/>
<path d="M26.1167 27.4803C26.1167 26.3293 25.2258 25.3962 24.1267 25.3962L15.8993 25.3962C14.8003 25.3962 13.9093 26.3293 13.9093 27.4803L13.9093 33.3608C13.9093 34.5118 14.8003 35.4448 15.8993 35.4448L24.1267 35.4448C25.2257 35.4448 26.1167 34.5118 26.1167 33.3608L26.1167 27.4803Z" fill="white"/>
<path d="M28.8098 26.9024L31.0593 32.587C31.189 32.9148 31.6622 32.9179 31.7963 32.5918L32.6928 30.4129C32.7331 30.3151 32.8124 30.2375 32.9125 30.1981L35.1409 29.3215C35.4744 29.1904 35.4713 28.7277 35.136 28.6009L29.3222 26.4013C29.0013 26.2799 28.6856 26.5886 28.8098 26.9024Z" fill="white"/>
<path fill-rule="evenodd" clip-rule="evenodd" d="M30.9147 32.6418L28.6651 26.9571C28.4923 26.5206 28.9317 26.091 29.3782 26.2599L35.192 28.4595C35.6585 28.636 35.6629 29.2798 35.1988 29.4623L32.9704 30.3389C32.9095 30.3628 32.8612 30.41 32.8367 30.4695L31.9403 32.6485C31.7536 33.1022 31.0952 33.0979 30.9147 32.6418ZM31.0593 32.5871L28.8097 26.9024C28.6856 26.5887 29.0013 26.28 29.3222 26.4014L35.136 28.6009C35.4712 28.7278 35.4744 29.1904 35.1409 29.3216L32.9125 30.1981C32.8124 30.2375 32.7331 30.3151 32.6928 30.4129L31.7963 32.5918C31.6622 32.9179 31.189 32.9148 31.0593 32.5871Z" fill="white"/>
</svg>