<svg xmlns:xlink="http://www.w3.org/1999/xlink" xmlns="http://www.w3.org/2000/svg" width="80" height="80" viewBox="0 0 80 80" fill="none">
<path d="M31.3383 13.6374C33.8106 16.1097 34.7627 19.7261 33.8106 23.0945C36.8589 21.2623 40.3474 20.3022 43.8998 20.3022H43.9718C49.1964 20.3182 54.197 22.4144 57.8695 26.1269C60.8138 29.2232 65.7104 29.3433 68.7988 26.3989C71.8951 23.4546 72.0152 18.558 69.0708 15.4696C68.9988 15.3896 68.9188 15.3176 68.8388 15.2376C62.278 8.60478 53.3409 4.86033 44.0118 4.84433H43.8758C36.891 4.82833 30.0661 6.90858 24.2734 10.813H24.4895C27.0578 10.813 29.5141 11.8292 31.3303 13.6454L31.3383 13.6374Z" fill="#1770E6"/>
<path d="M63.2228 51.7217C61.1825 51.7217 59.2223 52.5298 57.7741 53.9619C54.0937 57.6264 49.1091 59.6826 43.9085 59.6826H43.8365C40.276 59.6826 36.7796 58.6985 33.7393 56.8423C33.9713 57.6824 34.0833 58.5545 34.0833 59.4266C34.0833 64.7632 29.7548 69.0917 24.4181 69.0917H24.1621C29.9468 73.0282 36.7796 75.1485 43.7805 75.1565H43.9165C53.1976 75.1725 62.1027 71.5 68.6714 64.9472C71.7038 61.9389 71.7198 57.0423 68.7194 54.01C67.2713 52.5458 65.287 51.7217 63.2308 51.7217H63.2228Z" fill="#E44F20"/>
<path d="M17.5772 52.5862C19.3854 50.77 21.8497 49.7459 24.418 49.7539C25.3061 49.7539 26.1862 49.8739 27.0343 50.1139C23.2738 43.8652 23.2898 36.0482 27.0743 29.8155C21.9217 31.2317 16.601 28.1993 15.1849 23.0467C14.9528 22.2066 14.8408 21.3425 14.8408 20.4784V20.2144C6.75186 32.0958 6.71985 47.7056 14.7448 59.627V59.427C14.7448 56.8587 15.7529 54.4024 17.5772 52.5862Z" fill="#FFDA00"/>
<path d="M24.5055 12.5254C22.3052 12.5254 20.7691 13.4375 18.9048 15.3017C17.1286 17.0779 16.5685 18.6301 16.5605 20.4783C16.5605 24.8709 20.121 28.4233 24.5135 28.4233C28.906 28.4233 32.4585 24.8629 32.4585 20.4703C32.4585 16.0858 28.898 12.5254 24.5135 12.5254H24.5055Z" fill="#1770E6"/>
<path d="M16.4492 59.4346C16.4492 61.6268 17.3613 63.171 19.2256 65.0352C21.0018 66.8115 22.5539 67.3795 24.4022 67.3795C28.7787 67.3635 32.3151 63.8111 32.2991 59.4346C32.2831 55.0581 28.7307 51.5216 24.3542 51.5377C19.9856 51.5537 16.4572 55.0901 16.4572 59.4586V59.4346H16.4492Z" fill="#E44F20"/>
</svg>