<svg width="100" height="40" viewBox="0 0 100 40" fill="none" xmlns="http://www.w3.org/2000/svg">
<path fill-rule="evenodd" clip-rule="evenodd" d="M24.6597 20.331C24.6597 27.141 19.141 32.662 12.331 32.662C5.52097 32.662 0 27.141 0 20.331C0 13.521 5.52097 8 12.331 8C19.141 8 24.6597 13.521 24.6597 20.331ZM12.4286 27.2068C9.04176 27.2183 5.51668 24.3274 5.50082 19.6832C5.48947 16.6134 7.14782 13.657 9.26378 11.9035C11.3299 10.1953 14.1595 9.09657 16.724 9.08751C17.0548 9.08751 17.4014 9.11465 17.6121 9.18715C15.3692 9.65158 13.584 11.7403 13.5908 14.1078C13.5908 14.187 13.5976 14.2708 13.6066 14.3094C17.3605 15.2246 19.0642 17.4901 19.0755 20.6233C19.0845 23.7587 16.6107 27.1932 12.4286 27.2068ZM71.9259 14.8824C72.1434 14.9505 72.2884 15.0049 72.3632 15.0411L72.6237 13.12C72.5625 13.0814 72.3473 13.0113 71.9803 12.9047C71.6133 12.7982 71.1511 12.7461 70.5916 12.7461C70.1679 12.7461 69.776 12.8049 69.4135 12.9228C69.0533 13.0406 68.7384 13.2287 68.4711 13.4847C68.2037 13.7384 67.9953 14.0692 67.8458 14.4724C67.6963 14.8779 67.6215 15.3718 67.6215 15.9563V16.4411H66.4276V18.3078H67.6215V25.4373H69.9368V18.3078H71.8602V16.4411H69.9187V16.0129C69.9187 15.578 70.0275 15.2631 70.2449 15.0705C70.4624 14.878 70.7343 14.7805 71.056 14.7805C71.4185 14.7805 71.7062 14.8145 71.9259 14.8824ZM52.8421 18.1587C53.2272 18.1587 53.6418 18.247 54.0881 18.4215L54.0881 22.8799C53.9635 23.0906 53.7528 23.2764 53.456 23.4327C53.1593 23.5868 52.8693 23.6661 52.5838 23.6661C52.2372 23.6661 51.9359 23.5868 51.6822 23.4327C51.4284 23.2764 51.2178 23.0703 51.0524 22.8142C50.8847 22.5583 50.7601 22.2569 50.6808 21.9148C50.5992 21.5705 50.5585 21.2126 50.5585 20.8388C50.5585 20.5012 50.6061 20.1727 50.6989 19.8555C50.7918 19.5361 50.93 19.2484 51.1158 18.9924C51.3016 18.7364 51.5372 18.5347 51.8226 18.3852C52.1058 18.2358 52.4479 18.1587 52.8421 18.1587ZM54.181 24.749L54.2739 25.4377H56.4012V12.9889H54.0881V16.4777C53.5421 16.3055 53.0324 16.2172 52.5612 16.2172C51.843 16.2172 51.2155 16.3531 50.6831 16.6204C50.1484 16.8878 49.7067 17.2412 49.351 17.683C48.9976 18.1247 48.7348 18.6254 48.5603 19.185C48.3882 19.7445 48.3021 20.3177 48.3021 20.9022C48.3021 21.5252 48.3859 22.1233 48.5513 22.6942C48.7189 23.2674 48.9659 23.7726 49.2876 24.2075C49.6093 24.6425 50.0057 24.9914 50.4792 25.2519C50.9482 25.5125 51.4964 25.6438 52.1149 25.6438C52.5861 25.6438 52.9961 25.5532 53.3428 25.372C53.6917 25.193 53.9703 24.9846 54.181 24.749ZM44.8583 20.8929C44.8583 20.5191 44.8153 20.1634 44.7269 19.8259C44.6408 19.4883 44.5094 19.1983 44.335 18.9559C44.1605 18.7113 43.9499 18.5187 43.7006 18.376C43.4514 18.231 43.1592 18.1585 42.8239 18.1585C42.4886 18.1585 42.1941 18.231 41.9472 18.376C41.698 18.5187 41.485 18.7113 41.3128 18.9559C41.1384 19.1983 41.007 19.4883 40.9209 19.8259C40.8326 20.1634 40.7895 20.5191 40.7895 20.8929C40.7895 21.2803 40.8325 21.6405 40.9209 21.9713C41.007 22.302 41.1339 22.592 41.3015 22.8412C41.4692 23.0904 41.6821 23.2875 41.9381 23.4325C42.1918 23.5752 42.4886 23.6477 42.8239 23.6477C43.1592 23.6477 43.4514 23.5752 43.7006 23.4325C43.9499 23.2875 44.1605 23.0904 44.335 22.8412C44.5094 22.592 44.6408 22.302 44.7269 21.9713C44.8153 21.6405 44.8583 21.2803 44.8583 20.8929ZM47.1351 20.9028C47.1351 21.4895 47.0445 22.065 46.8655 22.6313C46.6843 23.1977 46.417 23.7029 46.0613 24.1514C45.7079 24.6 45.2593 24.9602 44.7179 25.2344C44.1764 25.5085 43.5443 25.6444 42.8239 25.6444C42.1012 25.6444 41.4692 25.5085 40.93 25.2344C40.3885 24.9603 39.94 24.6 39.5843 24.1515C39.2309 23.7029 38.9635 23.1977 38.7823 22.6313C38.6033 22.065 38.5127 21.4895 38.5127 20.9028C38.5127 20.3183 38.6033 19.7474 38.7823 19.1855C38.9635 18.626 39.2309 18.1253 39.5843 17.6835C39.94 17.2418 40.3885 16.8883 40.93 16.621C41.4692 16.3537 42.1012 16.2178 42.8239 16.2178C43.5443 16.2178 44.1741 16.3537 44.7088 16.621C45.2434 16.8883 45.692 17.2418 46.0522 17.6835C46.4147 18.1253 46.6843 18.626 46.8655 19.1855C47.0445 19.7474 47.1351 20.3183 47.1351 20.9028ZM32.6224 25.4375L28.8526 16.4413H31.3152L33.6667 22.4154L35.9458 16.4413H38.2974L34.6386 25.4375H32.6224ZM62.9163 21.2191C62.6671 21.2323 62.4088 21.2555 62.1461 21.2849C61.8833 21.3166 61.6341 21.3574 61.3962 21.4072C60.8932 21.5068 60.5466 21.6768 60.3518 21.9192C60.1592 22.1639 60.0618 22.4267 60.0618 22.7144C60.0618 23.0112 60.1706 23.2513 60.3903 23.4326C60.6101 23.6115 60.9182 23.7021 61.3192 23.7021C61.6205 23.7021 61.9127 23.641 62.1936 23.5164C62.4745 23.3918 62.7169 23.2355 62.9163 23.0497V21.2191ZM63.1021 25.4307L63.0115 24.7578C62.76 25.0342 62.4428 25.2517 62.0554 25.408C61.668 25.5644 61.2444 25.6436 60.7822 25.6436C60.3949 25.6436 60.021 25.5779 59.6676 25.4465C59.3097 25.3175 58.9948 25.1294 58.7207 24.887C58.4465 24.6445 58.2245 24.3478 58.0569 23.9921C57.887 23.6364 57.8031 23.2354 57.8031 22.7869C57.8031 22.3406 57.8892 21.9441 58.0659 21.602C58.2404 21.2599 58.476 20.9722 58.7773 20.7343C59.0763 20.4987 59.4207 20.3062 59.8081 20.1567C60.1932 20.0072 60.601 19.8938 61.0246 19.8191C61.3237 19.7579 61.6522 19.7125 62.0079 19.6808C62.3635 19.6491 62.6603 19.622 62.8982 19.597V19.4656C62.8982 18.9672 62.7713 18.6138 62.5131 18.4008C62.2571 18.1901 61.9037 18.0837 61.4551 18.0837C61.1923 18.0837 60.9408 18.1154 60.703 18.1789C60.4651 18.24 60.2544 18.3171 60.0664 18.4099C59.8783 18.5051 59.7129 18.598 59.5679 18.6909C59.4252 18.7838 59.3097 18.8676 59.2213 18.9423L58.4556 17.3202C58.5553 17.232 58.7071 17.1277 58.9132 17.0031C59.1194 16.8785 59.3663 16.7561 59.6608 16.6383C59.9531 16.5204 60.2816 16.4208 60.6486 16.3393C61.0156 16.2577 61.412 16.217 61.8334 16.217C62.3318 16.217 62.7872 16.2827 63.1972 16.4141C63.6073 16.5454 63.963 16.7494 64.262 17.0303C64.5588 17.3089 64.7921 17.6624 64.962 18.0928C65.1297 18.521 65.2135 19.0397 65.2135 19.6492V25.4307H63.1021ZM78.673 20.8929C78.673 20.5191 78.6277 20.1634 78.5416 19.8259C78.4555 19.4883 78.3241 19.1983 78.1497 18.9559C77.9752 18.7113 77.7646 18.5187 77.5154 18.376C77.2662 18.231 76.9739 18.1585 76.6386 18.1585C76.3033 18.1585 76.0088 18.231 75.7619 18.376C75.5127 18.5187 75.2997 18.7113 75.1253 18.9559C74.9531 19.1983 74.8217 19.4883 74.7333 19.8259C74.6472 20.1634 74.6042 20.5191 74.6042 20.8929C74.6042 21.2803 74.6472 21.6405 74.7333 21.9713C74.8217 22.302 74.9486 22.592 75.1162 22.8412C75.2839 23.0904 75.4968 23.2875 75.7505 23.4325C76.0065 23.5752 76.3033 23.6477 76.6386 23.6477C76.9739 23.6477 77.2662 23.5752 77.5154 23.4325C77.7646 23.2875 77.9752 23.0904 78.1497 22.8412C78.3241 22.592 78.4555 22.302 78.5416 21.9713C78.6277 21.6405 78.673 21.2803 78.673 20.8929ZM80.9498 20.9028C80.9498 21.4895 80.8592 22.065 80.678 22.6313C80.499 23.1977 80.2317 23.7029 79.876 24.1514C79.5226 24.6 79.074 24.9602 78.5326 25.2344C77.9911 25.5085 77.359 25.6444 76.6386 25.6444C75.9159 25.6444 75.2839 25.5085 74.7447 25.2344C74.2032 24.9603 73.7547 24.6 73.399 24.1515C73.0456 23.7029 72.7782 23.1977 72.597 22.6313C72.4158 22.065 72.3274 21.4895 72.3274 20.9028C72.3274 20.3183 72.4158 19.7474 72.597 19.1855C72.7782 18.626 73.0456 18.1253 73.399 17.6835C73.7547 17.2418 74.2032 16.8883 74.7447 16.621C75.2839 16.3537 75.9159 16.2178 76.6386 16.2178C77.359 16.2178 77.9888 16.3537 78.5235 16.621C79.0581 16.8883 79.5067 17.2418 79.8669 17.6835C80.2294 18.1253 80.499 18.626 80.678 19.1855C80.8592 19.7474 80.9498 20.3183 80.9498 20.9028ZM88.1336 20.306V25.4373H90.4489V20.118C90.4489 19.4225 90.3696 18.8244 90.2155 18.326C90.0592 17.8299 89.8395 17.4243 89.5518 17.114C89.2663 16.8036 88.9242 16.5771 88.5255 16.4321C88.1268 16.2893 87.6918 16.2191 87.2183 16.2191C86.7584 16.2191 86.3008 16.2984 85.8477 16.4615C85.3923 16.6224 84.9868 16.8535 84.6243 17.1502L84.5133 16.4411H82.4042V25.4373H84.7172V19.0555C84.9415 18.8312 85.2066 18.625 85.5124 18.4393C85.816 18.2513 86.149 18.1584 86.5092 18.1584C87.0212 18.1584 87.4177 18.3464 87.7054 18.7179C87.9908 19.0918 88.1336 19.6219 88.1336 20.306ZM97.6484 19.8574C97.6235 19.547 97.5578 19.2751 97.4514 19.0463C97.3449 18.8152 97.2135 18.6295 97.0572 18.4867C96.9008 18.3417 96.7332 18.2375 96.552 18.1673C96.3685 18.0994 96.1849 18.0654 95.9969 18.0654C95.5959 18.0654 95.2153 18.2148 94.8528 18.5139C94.4904 18.813 94.2774 19.2593 94.214 19.8574H97.6484ZM94.1596 21.5179C94.2094 22.2769 94.4451 22.8251 94.871 23.1604C95.2946 23.4957 95.8451 23.6656 96.518 23.6656C96.8306 23.6656 97.1251 23.6362 97.3992 23.5818C97.6734 23.5252 97.918 23.4549 98.131 23.3666C98.3439 23.2804 98.5252 23.1921 98.6747 23.106C98.8242 23.0177 98.9352 22.9361 99.0123 22.8614L99.6285 24.7485C99.5401 24.8096 99.3997 24.8935 99.2071 25C99.0145 25.1065 98.7744 25.2039 98.4889 25.299C98.2035 25.3919 97.8659 25.4712 97.4808 25.5414C97.0957 25.6093 96.672 25.6433 96.2121 25.6433C95.6254 25.6433 95.0703 25.5505 94.5402 25.3647C94.0124 25.1767 93.5479 24.8867 93.1515 24.4948C92.7527 24.1028 92.4356 23.6157 92.2 23.0313C91.9621 22.4467 91.8443 21.749 91.8443 20.9402C91.8443 20.1813 91.953 19.5084 92.1705 18.9239C92.388 18.3395 92.687 17.8478 93.0654 17.4491C93.446 17.0526 93.8878 16.7468 94.3907 16.5338C94.8959 16.3232 95.4328 16.2167 96.006 16.2167C96.5791 16.2167 97.107 16.3119 97.5941 16.4976C98.0789 16.6834 98.498 16.9734 98.8537 17.3653C99.2071 17.7572 99.488 18.2647 99.6919 18.8877C99.8981 19.5084 100 20.2493 100 21.1079V21.5179L94.1596 21.5179Z" fill="white" style="fill:white;fill-opacity:1;"/>
</svg>
